<svg width="40" height="44" viewBox="0 0 40 44" fill="none" xmlns="http://www.w3.org/2000/svg">
<path d="M39.4158 39.7194L24.4396 3.24562C23.5949 1.35983 22.3392 0.439941 20.6841 0.439941H19.36C17.7048 0.439941 16.4492 1.35983 15.6045 3.24562L9.0866 19.1368H4.15539C2.68287 19.1483 1.48431 20.3441 1.4729 21.839V21.8735C1.48431 23.3568 2.68287 24.5641 4.15539 24.5756H6.80363L0.58254 39.7194C0.468391 40.0528 0.399902 40.3978 0.399902 40.7543C0.399902 41.6052 0.662444 42.2721 1.13045 42.7895C1.59846 43.307 2.27194 43.5599 3.11664 43.5599C3.67596 43.5484 4.21246 43.376 4.65764 43.0425C5.13706 42.709 5.46809 42.2261 5.73064 41.6742L12.5795 24.5641H17.3281C18.8006 24.5526 19.9992 23.3568 20.0106 21.862V21.793C19.9992 20.3096 18.8006 19.1023 17.3281 19.0908H14.794L20.022 5.9708L34.2677 41.6627C34.5303 42.2146 34.8613 42.6975 35.3407 43.031C35.7859 43.3645 36.3338 43.5369 36.8817 43.5484C37.7264 43.5484 38.3885 43.2955 38.8679 42.778C39.3474 42.2606 39.5985 41.5937 39.5985 40.7428C39.6099 40.3978 39.5528 40.0413 39.4158 39.7194Z" fill="#7DCCF8"/>
</svg>
