<svg width="75" height="78" viewBox="0 0 75 78" fill="none" xmlns="http://www.w3.org/2000/svg">
<path d="M50.1162 28.8266C44.1906 23.0259 34.7885 23.0259 28.8918 28.8266C23.0238 34.7233 23.1295 44.3175 28.959 50.2143C34.7885 56.111 44.3443 56.1782 50.2122 50.2815C50.3082 50.1854 50.7212 49.7437 51.4703 48.9466L44.4115 41.8205C43.7104 42.6849 43.2879 43.1266 43.2494 43.1266C41.2518 45.1242 38.025 45.1242 36.0274 43.1266C34.0298 41.1291 34.0298 37.8638 35.9602 35.9046C37.8905 33.9742 41.127 33.9742 43.1438 35.9718C43.1438 35.9718 49.4631 42.2911 62.0633 54.9585C56.8772 62.4783 48.1858 67.2322 38.8317 67.2322C23.3408 67.2322 10.7502 54.536 10.7502 38.853C10.7502 23.1699 23.3504 10.4929 38.8317 10.4929C47.8785 10.4929 56.1858 14.8531 61.343 21.9791C60.5075 22.9395 58.385 25.3788 54.9565 29.2972L61.948 36.2887L73.5302 23.1699C67.499 9.52294 53.9769 0.466553 38.7933 0.466553C17.7898 0.466553 0.733398 17.6862 0.733398 38.8722C0.733398 60.0582 17.7513 77.3162 38.7933 77.3162C48.3491 77.3162 56.2722 74.291 64.0033 67.6644C71.0236 61.6716 74.3562 53.3355 74.3562 53.3355L50.1162 28.8266Z" fill="#7DCCF8"/>
</svg>
