<svg width="58" height="58" viewBox="0 0 58 58" fill="none" xmlns="http://www.w3.org/2000/svg">
<path d="M20.7017 18.8521V40.512H38.7517L20.7017 18.8521Z" fill="#7DCCF8"/>
<path d="M2.65161 40.512H20.7016V18.8521L2.65161 40.512Z" fill="white"/>
<path d="M6.01611 46.2881C7.66227 48.4685 9.61167 50.4179 11.7921 52.0641H46.4481C48.6285 50.4179 50.5779 48.4685 52.2241 46.2881H6.01611Z" fill="#7DCCF8"/>
<path d="M38.9827 30.4041V46.2881H52.2241L38.9827 30.4041Z" fill="#7DCCF8"/>
<path d="M38.9826 40.512H2.65161C3.54689 42.5769 4.68765 44.5118 6.01613 46.288H38.9971V40.512H38.9826V40.512Z" fill="#ACE1FF"/>
<path d="M25.7556 46.2881H38.9827V30.4041L25.7556 46.2881Z" fill="white"/>
<circle cx="38.9827" cy="18.8521" r="7.22" fill="#7DCCF8"/>
<circle cx="20.7016" cy="10.91" r="3.61" fill="#7DCCF8"/>
</svg>
