<svg width="80" height="80" viewBox="0 0 80 80" fill="none" xmlns="http://www.w3.org/2000/svg">
<path fill-rule="evenodd" clip-rule="evenodd" d="M56.7596 63.1761H48.2436V48.5161C48.2436 46.1681 46.3436 44.2601 43.9956 44.2601H43.9916H31.7516C27.0516 44.2601 23.2396 40.4481 23.2396 35.7481V16.8281H31.7516V31.4921C31.7516 33.8401 33.6556 35.7481 36.0036 35.7481H48.2436C52.9436 35.7521 56.7516 39.5601 56.7556 44.2601L56.7596 63.1761ZM32.0492 63.1749H23.5332V48.8789C28.2332 48.8789 32.0452 52.6869 32.0452 57.3909L32.0492 63.1749ZM47.9518 16.8242H56.4638V31.1282C51.7598 31.1282 47.9518 27.3162 47.9518 22.6162V16.8242ZM40 0C17.908 0 0 17.912 0 40C0 62.088 17.908 80 40 80C62.092 80 80 62.092 80 40C80 17.908 62.092 0 40 0Z" fill="#7DCCF8"/>
</svg>
