<svg width="54" height="51" viewBox="0 0 54 51" fill="none" xmlns="http://www.w3.org/2000/svg">
<path fill-rule="evenodd" clip-rule="evenodd" d="M35.8984 0.627441C41.0532 0.627441 45.326 2.32284 48.6776 5.71364C52.0488 9.10444 53.7442 13.3968 53.7442 18.5908C53.7442 23.8044 52.0488 28.087 48.6972 31.4778C45.3456 34.8686 41.0728 36.564 35.918 36.564H26.2454V50.3428H14.75V42.8066C19.3658 41.3464 22.7076 37.0246 22.7076 31.9286C22.7076 26.8326 19.3658 22.5108 14.75 21.0506V13.9456V0.627441H35.8984ZM34.1148 27.2148C36.4472 27.2148 38.3484 26.4014 39.838 24.7942C41.3276 23.187 42.0822 21.129 42.0724 18.6202C42.0724 16.1114 41.3276 14.0534 39.838 12.4462C38.3386 10.839 36.4276 10.0256 34.1148 10.0256H26.2258V27.2148H34.1148Z" fill="#7DCCF8"/>
<path d="M8.8112 40.3468C13.4172 40.3468 17.1412 36.613 17.1412 32.0168C17.1412 27.4108 13.4074 23.6868 8.8112 23.6868C4.215 23.6868 0.481201 27.4206 0.481201 32.0168C0.481201 36.6228 4.215 40.3468 8.8112 40.3468Z" fill="white"/>
</svg>
