<svg width="56" height="40" viewBox="0 0 56 40" fill="none" xmlns="http://www.w3.org/2000/svg">
<path fill-rule="evenodd" clip-rule="evenodd" d="M12.6911 8.49612C13.2521 8.49612 13.7773 8.73485 14.1235 9.16458L18.5162 14.5481L24.3056 7.49342L21.3333 3.86462C19.0892 1.34594 16.4273 0.0806312 13.3476 0.0806312H1.12425C1.02875 0.0686943 0.945192 0.104505 0.873571 0.176126C0.813887 0.23581 0.778076 0.307431 0.778076 0.39099V8.18576C0.778076 8.26932 0.813887 8.34094 0.873571 8.40062C0.945192 8.46031 1.02875 8.49612 1.12425 8.49612H12.6911ZM43.511 0.0807486C40.3954 0.0807486 37.7216 1.33412 35.4894 3.82892L22.4901 19.7169L14.1224 29.9348C13.7643 30.3526 13.2391 30.6033 12.69 30.6033H1.12317C1.03961 30.5914 0.956056 30.6272 0.896371 30.6988C0.848624 30.7585 0.82475 30.8301 0.82475 30.9137V38.7084C0.812813 38.792 0.836687 38.8875 0.896371 38.9591C0.944119 39.0188 1.03961 39.0665 1.12317 39.0546H13.3226C16.4382 39.0546 19.112 37.7893 21.3442 35.2706L28.4347 26.6164L35.5252 35.2706C37.7455 37.7893 40.3954 39.0546 43.511 39.0546H55.6866C55.7701 39.0665 55.8537 39.0307 55.9134 38.9591C55.9611 38.8994 55.985 38.8278 55.985 38.7442V30.9495C55.9969 30.8659 55.9611 30.7704 55.9134 30.6988C55.8656 30.6391 55.7701 30.5914 55.6866 30.6033H44.1197C43.5945 30.6152 43.0812 30.3765 42.7351 29.9826L34.1763 19.5378L42.6993 9.1647C43.0574 8.73497 43.5826 8.4843 44.1317 8.49623H55.6985C55.7821 8.50817 55.8656 8.47236 55.9253 8.40074C55.973 8.34105 55.9969 8.26943 55.9969 8.18588V0.391107C56.0089 0.295612 55.985 0.212054 55.9253 0.15237C55.8656 0.104622 55.7821 0.0688117 55.6985 0.0807486H43.511Z" fill="#7DCCF8"/>
</svg>
