<svg width="56" height="64" viewBox="0 0 56 64" fill="none" xmlns="http://www.w3.org/2000/svg">
<path d="M22.1084 14.8821C21.4315 14.7854 21.3992 14.7532 21.7216 14.721C22.334 14.6243 23.7523 14.7532 24.7515 14.9788C27.0723 15.5268 29.1674 16.945 31.3915 19.427L31.9717 20.1039L32.8098 19.975C36.3876 19.3948 40.0622 19.846 43.1244 21.2643C43.9624 21.6511 45.284 22.4247 45.4451 22.6181C45.5096 22.6825 45.6063 23.1016 45.6708 23.5206C45.8964 25.0356 45.7997 26.1637 45.3162 27.034C45.0583 27.5175 45.0583 27.6464 45.2195 28.0655C45.3484 28.3878 45.7352 28.6134 46.0898 28.6134C46.8634 28.6134 47.6692 27.3886 48.056 25.6802L48.2172 25.0033L48.5073 25.3257C50.1512 27.1629 51.4405 29.7094 51.6339 31.5144L51.6984 31.9979L51.4083 31.5789C50.9248 30.8375 50.4735 30.354 49.8611 29.935C48.7652 29.1936 47.6048 28.968 44.5426 28.8068C41.7706 28.6457 40.1911 28.42 38.644 27.9043C36.0008 27.034 34.6471 25.9058 31.5204 21.7478C30.1344 19.9105 29.2641 18.9113 28.3938 18.0732C26.4921 16.2359 24.5903 15.2689 22.1084 14.8821Z" fill="#7DCCF8"/>
<path d="M46.1224 18.9753C46.1869 17.7504 46.348 16.9446 46.7026 16.2032C46.8315 15.9131 46.9604 15.6553 46.9927 15.6553C47.0249 15.6553 46.9604 15.8809 46.8638 16.1388C46.6059 16.8479 46.5737 17.8471 46.7348 18.9753C46.9604 20.4258 47.0571 20.6192 48.6043 22.1986C49.3135 22.94 50.1515 23.8747 50.4739 24.2615L51.0218 24.9706L50.4739 24.4549C49.797 23.8103 48.2498 22.5854 47.8952 22.4242C47.6696 22.2953 47.6373 22.2953 47.4762 22.4565C47.3472 22.5854 47.315 22.7788 47.315 23.7136C47.2828 25.164 47.0894 26.0666 46.6059 27.0013C46.348 27.4848 46.3158 27.3881 46.5414 26.8402C46.7026 26.4211 46.7348 26.2277 46.7348 24.8417C46.7348 22.0374 46.4125 21.3605 44.4463 20.2324C43.9628 19.9423 43.1247 19.5232 42.6412 19.2976C42.1255 19.072 41.7387 18.8786 41.7709 18.8786C41.8354 18.8141 43.7371 19.3621 44.4785 19.6844C45.6067 20.1357 45.8001 20.1679 45.929 20.1357C46.0257 20.039 46.0902 19.7811 46.1224 18.9753Z" fill="#7DCCF8"/>
<path d="M23.4296 23.7784C22.0758 21.9089 21.2055 19.0079 21.3989 16.8483L21.4634 16.1714L21.7857 16.2359C22.3659 16.3326 23.3651 16.7193 23.8486 17.0094C25.1379 17.783 25.7181 18.8467 26.2661 21.4899C26.4273 22.2634 26.6529 23.166 26.7496 23.4561C26.9108 23.9396 27.5232 25.0677 28.0389 25.7769C28.3935 26.2926 28.1678 26.5504 27.362 26.486C26.1372 26.357 24.4933 25.2289 23.4296 23.7784Z" fill="#7DCCF8"/>
<path d="M44.4783 37.7983C38.0962 35.2197 35.8398 32.9956 35.8398 29.2243C35.8398 28.6764 35.8721 28.2251 35.8721 28.2251C35.9043 28.2251 36.1299 28.4185 36.42 28.6441C37.7094 29.6756 39.1599 30.1269 43.189 30.707C45.542 31.0616 46.8958 31.3195 48.1207 31.7385C52.0209 33.0278 54.4383 35.6709 55.0185 39.2488C55.1797 40.2803 55.083 42.2465 54.8251 43.278C54.5995 44.0838 53.9549 45.5665 53.7937 45.5987C53.7615 45.5987 53.697 45.4376 53.697 45.1797C53.6325 43.8259 52.9556 42.5366 51.8275 41.5374C50.4737 40.377 48.7331 39.5067 44.4783 37.7983Z" fill="#7DCCF8"/>
<path d="M39.9652 38.8632C39.9008 38.3797 39.7396 37.7672 39.6429 37.5094L39.4817 37.0259L39.7718 37.3804C40.1909 37.8639 40.5132 38.4441 40.8033 39.25C41.0289 39.8624 41.0289 40.0558 41.0289 41.055C41.0289 42.022 40.9967 42.2476 40.8033 42.7956C40.4809 43.6659 40.0942 44.2783 39.4495 44.9552C38.2891 46.1478 36.7741 46.7925 34.6145 47.0826C34.2277 47.1148 33.1318 47.2115 32.1648 47.276C29.7473 47.4049 28.1357 47.6628 26.6852 48.1785C26.4918 48.243 26.2984 48.3075 26.2661 48.2752C26.2017 48.2108 27.2009 47.6306 28.0067 47.2438C29.1349 46.6958 30.2953 46.4057 32.8417 45.9545C34.0988 45.7611 35.3881 45.5032 35.7105 45.3743C38.9015 44.375 40.481 41.8931 39.9652 38.8632Z" fill="#7DCCF8"/>
<path d="M42.8987 44.0524C42.0606 42.2151 41.8672 40.4745 42.3185 38.8306C42.3829 38.6695 42.4474 38.5083 42.5119 38.5083C42.5763 38.5083 42.7697 38.605 42.9631 38.7339C43.3499 38.9918 44.1557 39.4431 46.2187 40.5712C48.8295 41.9895 50.3123 43.0854 51.3437 44.3425C52.2463 45.4384 52.7942 46.6955 53.0521 48.2427C53.2132 49.113 53.1165 51.2081 52.8909 52.0784C52.1818 54.8183 50.5701 57.0101 48.2171 58.2672C47.8626 58.4606 47.5725 58.5895 47.5402 58.5895C47.508 58.5895 47.6369 58.2672 47.8303 57.8804C48.6039 56.2365 48.7006 54.6571 48.1204 52.8843C47.7659 51.7883 47.0245 50.4668 45.5418 48.2427C43.7689 45.6641 43.3499 44.9872 42.8987 44.0524Z" fill="#7DCCF8"/>
<path d="M18.8849 53.916C21.2702 51.9176 24.2034 50.4993 26.9109 50.048C28.0713 49.8547 30.0053 49.9191 31.069 50.2092C32.7774 50.6605 34.3246 51.6275 35.1304 52.8201C35.904 53.9805 36.2585 54.9797 36.6131 57.2038C36.742 58.0741 36.9032 58.9766 36.9354 59.17C37.1933 60.3304 37.709 61.2329 38.3537 61.7164C39.3529 62.4578 41.0935 62.49 42.8019 61.8454C43.092 61.7487 43.3498 61.652 43.3498 61.6842C43.4143 61.7487 42.544 62.3289 41.9638 62.619C41.158 63.038 40.5133 63.1669 39.643 63.1669C38.0958 63.1669 36.7743 62.3611 35.7106 60.7494C35.485 60.4271 35.0337 59.4923 34.6469 58.6221C33.5187 56.0112 32.9385 55.2376 31.617 54.3673C30.4566 53.6259 28.9739 53.4648 27.8457 54.0127C26.363 54.7218 25.9762 56.6236 27.0076 57.784C27.4267 58.2675 28.2003 58.6543 28.8449 58.751C30.0376 58.9122 31.069 57.9774 31.069 56.7848C31.069 56.0112 30.7789 55.5599 30.0053 55.2053C28.9739 54.7541 27.8457 55.2698 27.8779 56.269C27.8779 56.6881 28.0713 56.9459 28.4904 57.1393C28.7482 57.2683 28.7482 57.2683 28.5548 57.236C27.6201 57.0426 27.3944 55.8822 28.1358 55.1409C29.0383 54.2384 30.9401 54.6252 31.5847 55.8822C31.8426 56.398 31.8748 57.4294 31.6492 58.0741C31.1013 59.4923 29.5541 60.2337 27.9746 59.8147C26.9109 59.5246 26.4597 59.2345 25.1704 57.9129C22.914 55.5921 22.0437 55.1409 18.8204 54.6574L18.208 54.5607L18.8849 53.916Z" fill="#7DCCF8"/>
<path fill-rule="evenodd" clip-rule="evenodd" d="M1.93086 2.05253C9.44117 11.1745 21.0129 25.3571 21.5931 26.1307C22.0765 26.7753 21.8832 27.3878 21.0773 27.839C20.6261 28.0969 19.6913 28.3547 19.24 28.3547C18.7243 28.3547 18.1119 28.0969 17.6928 27.6779C17.4027 27.3878 16.1457 25.5505 13.3091 21.1345C11.1495 17.7501 9.31224 14.9458 9.28 14.9135C9.15107 14.8491 9.15107 14.8491 13.0835 21.8759C15.5655 26.2918 16.3713 27.8713 16.3713 28.0646C16.3713 28.4837 16.2424 28.7093 15.7266 29.2895C14.8563 30.2565 14.4695 31.3524 14.1794 33.641C13.8571 36.1874 12.9868 37.9924 10.5049 41.0546C9.05437 42.8596 8.82874 43.182 8.47418 43.9233C8.02291 44.8259 7.89398 45.3416 7.82951 46.502C7.76505 47.7268 7.89398 48.5004 8.24855 49.6608C8.57088 50.6923 8.92544 51.3692 9.79573 52.6907C10.5371 53.8511 10.9884 54.7214 10.9884 55.0438C10.9884 55.3016 11.0528 55.3016 12.2132 55.0438C14.9853 54.3991 17.2738 53.3032 18.5309 51.9494C19.3045 51.1113 19.4979 50.6601 19.4979 49.4997C19.4979 48.7583 19.4657 48.5971 19.2723 48.1459C18.9499 47.4367 18.3375 46.8566 17.0159 45.954C15.2754 44.7614 14.534 43.7944 14.3406 42.5051C14.1794 41.4092 14.3728 40.6678 15.3398 38.6371C16.3391 36.542 16.5969 35.6717 16.7581 33.5443C16.8548 32.1905 17.016 31.6425 17.4027 31.2235C17.8218 30.7722 18.1763 30.6111 19.1756 30.4821C20.8195 30.2565 21.8832 29.8375 22.7212 29.0316C23.4626 28.3547 23.7849 27.6779 23.8171 26.6786L23.8494 25.9373L23.4303 25.486C21.9154 23.7454 0.931629 0.666504 0.83493 0.666504C0.802697 0.666504 1.31843 1.27893 1.93086 2.05253ZM11.8261 47.8882C12.1807 47.2758 11.9873 46.5022 11.4071 46.1154C10.8591 45.7608 10.0211 45.922 10.0211 46.4055C10.0211 46.5344 10.0856 46.6633 10.2789 46.7278C10.569 46.889 10.6013 47.0501 10.3756 47.4047C10.15 47.7593 10.15 48.0816 10.4401 48.3072C10.8914 48.6618 11.5038 48.4684 11.8261 47.8882Z" fill="#7DCCF8"/>
<path fill-rule="evenodd" clip-rule="evenodd" d="M24.881 30.9343C24.1074 31.1599 23.3661 31.998 23.1404 32.836C23.0115 33.3517 23.076 34.2865 23.3016 34.5766C23.6561 35.0279 23.9785 35.1568 24.881 35.1568C26.6538 35.1568 28.1688 34.3832 28.33 33.4484C28.4911 32.6748 27.8142 31.6112 26.8795 31.1277C26.396 30.8698 25.3967 30.7731 24.881 30.9343ZM26.9449 32.5462C27.2028 32.1594 27.1061 31.7404 26.6226 31.4503C25.7523 30.9023 24.4307 31.3536 24.4307 32.1916C24.4307 32.6107 25.1076 33.0619 25.7523 33.0619C26.1713 33.0619 26.7515 32.8041 26.9449 32.5462Z" fill="#7DCCF8"/>
</svg>
